<?xml version="1.0" encoding="UTF-8" standalone="no"?>
<!-- Created with Inkscape (http://www.inkscape.org/) -->

<svg
   xmlns:dc="http://purl.org/dc/elements/1.1/"
   xmlns:cc="http://creativecommons.org/ns#"
   xmlns:rdf="http://www.w3.org/1999/02/22-rdf-syntax-ns#"
   xmlns:svg="http://www.w3.org/2000/svg"
   xmlns="http://www.w3.org/2000/svg"
   xmlns:sodipodi="http://sodipodi.sourceforge.net/DTD/sodipodi-0.dtd"
   xmlns:inkscape="http://www.inkscape.org/namespaces/inkscape"
   id="svg2"
   version="1.1"
   inkscape:version="0.48.4 r9939"
   width="200"
   height="21.000002"
   xml:space="preserve"
   sodipodi:docname="Dark2.svg"><metadata
     id="metadata8"><rdf:RDF><cc:Work
         rdf:about=""><dc:format>image/svg+xml</dc:format><dc:type
           rdf:resource="http://purl.org/dc/dcmitype/StillImage" /><dc:title /></cc:Work></rdf:RDF></metadata><defs
     id="defs6"><clipPath
       clipPathUnits="userSpaceOnUse"
       id="clipPath20"><path
         d="m 59.04,73.44 320.97,0 0,468.27 -320.97,0 0,-468.27 z"
         id="path22"
         inkscape:connector-curvature="0" /></clipPath><clipPath
       clipPathUnits="userSpaceOnUse"
       id="clipPath34"><path
         d="m 59.04,73.44 320.97,0 0,468.27 -320.97,0 0,-468.27 z"
         id="path36"
         inkscape:connector-curvature="0" /></clipPath></defs><sodipodi:namedview
     pagecolor="#ffffff"
     bordercolor="#666666"
     borderopacity="1"
     objecttolerance="10"
     gridtolerance="10"
     guidetolerance="10"
     inkscape:pageopacity="0"
     inkscape:pageshadow="2"
     inkscape:window-width="1855"
     inkscape:window-height="1056"
     id="namedview4"
     showgrid="false"
     fit-margin-top="0"
     fit-margin-left="0"
     fit-margin-right="0"
     fit-margin-bottom="0"
     inkscape:zoom="1.2586667"
     inkscape:cx="348.74828"
     inkscape:cy="36.997494"
     inkscape:window-x="65"
     inkscape:window-y="24"
     inkscape:window-maximized="1"
     inkscape:current-layer="g10"
     showborder="false"
     inkscape:showpageshadow="false" /><g
     id="g10"
     inkscape:groupmode="layer"
     inkscape:label="Dark2"
     transform="matrix(1.25,0,0,-1.25,2207.5848,1500.5722)"><g
       id="g16"><g
         id="g18"
         clip-path="url(#clipPath20)" /></g><g
       id="g30"
       transform="matrix(0.49848896,0,0,0.03587674,-1795.4986,1181.023)"><g
         id="g32"
         clip-path="url(#clipPath34)"><path
           d="m 59.04,73.44 40.12,0 0,468.27 -40.12,0 0,-468.27 z"
           style="fill:#1b9e77;fill-opacity:1;fill-rule:nonzero;stroke:none"
           id="path38"
           inkscape:connector-curvature="0" /><path
           d="m 99.16,73.44 40.12,0 0,468.27 -40.12,0 0,-468.27 z"
           style="fill:#d95f02;fill-opacity:1;fill-rule:nonzero;stroke:none"
           id="path40"
           inkscape:connector-curvature="0" /><path
           d="m 139.28,73.44 40.12,0 0,468.27 -40.12,0 0,-468.27 z"
           style="fill:#7570b3;fill-opacity:1;fill-rule:nonzero;stroke:none"
           id="path42"
           inkscape:connector-curvature="0" /><path
           d="m 179.4,73.44 40.12,0 0,468.27 -40.12,0 0,-468.27 z"
           style="fill:#e7298a;fill-opacity:1;fill-rule:nonzero;stroke:none"
           id="path44"
           inkscape:connector-curvature="0" /><path
           d="m 219.53,73.44 40.12,0 0,468.27 -40.12,0 0,-468.27 z"
           style="fill:#66a61e;fill-opacity:1;fill-rule:nonzero;stroke:none"
           id="path46"
           inkscape:connector-curvature="0" /><path
           d="m 259.65,73.44 40.12,0 0,468.27 -40.12,0 0,-468.27 z"
           style="fill:#e6ab02;fill-opacity:1;fill-rule:nonzero;stroke:none"
           id="path48"
           inkscape:connector-curvature="0" /><path
           d="m 299.77,73.44 40.12,0 0,468.27 -40.12,0 0,-468.27 z"
           style="fill:#a6761d;fill-opacity:1;fill-rule:nonzero;stroke:none"
           id="path50"
           inkscape:connector-curvature="0" /><path
           d="m 339.89,73.44 40.12,0 0,468.27 -40.12,0 0,-468.27 z"
           style="fill:#666666;fill-opacity:1;fill-rule:nonzero;stroke:none"
           id="path52"
           inkscape:connector-curvature="0" /></g></g></g></svg>