<?xml version="1.0" encoding="UTF-8" standalone="no"?>
<!-- Created with Inkscape (http://www.inkscape.org/) -->

<svg
   xmlns:dc="http://purl.org/dc/elements/1.1/"
   xmlns:cc="http://creativecommons.org/ns#"
   xmlns:rdf="http://www.w3.org/1999/02/22-rdf-syntax-ns#"
   xmlns:svg="http://www.w3.org/2000/svg"
   xmlns="http://www.w3.org/2000/svg"
   xmlns:sodipodi="http://sodipodi.sourceforge.net/DTD/sodipodi-0.dtd"
   xmlns:inkscape="http://www.inkscape.org/namespaces/inkscape"
   id="svg3081"
   version="1.1"
   inkscape:version="0.48.4 r9939"
   width="200"
   height="21.000002"
   xml:space="preserve"
   sodipodi:docname="Pastel2.pdf"><metadata
     id="metadata3087"><rdf:RDF><cc:Work
         rdf:about=""><dc:format>image/svg+xml</dc:format><dc:type
           rdf:resource="http://purl.org/dc/dcmitype/StillImage" /><dc:title></dc:title></cc:Work></rdf:RDF></metadata><defs
     id="defs3085"><clipPath
       clipPathUnits="userSpaceOnUse"
       id="clipPath3099"><path
         d="m 59.04,73.44 320.97,0 0,468.27 -320.97,0 0,-468.27 z"
         id="path3101"
         inkscape:connector-curvature="0" /></clipPath><clipPath
       clipPathUnits="userSpaceOnUse"
       id="clipPath3113"><path
         d="m 59.04,73.44 320.97,0 0,468.27 -320.97,0 0,-468.27 z"
         id="path3115"
         inkscape:connector-curvature="0" /></clipPath></defs><sodipodi:namedview
     pagecolor="#ffffff"
     bordercolor="#666666"
     borderopacity="1"
     objecttolerance="10"
     gridtolerance="10"
     guidetolerance="10"
     inkscape:pageopacity="0"
     inkscape:pageshadow="2"
     inkscape:window-width="1855"
     inkscape:window-height="1056"
     id="namedview3083"
     showgrid="false"
     showborder="false"
     inkscape:showpageshadow="false"
     fit-margin-top="0"
     fit-margin-left="0"
     fit-margin-right="0"
     fit-margin-bottom="0"
     inkscape:zoom="0.31466667"
     inkscape:cx="-595.06303"
     inkscape:cy="1.0312528"
     inkscape:window-x="65"
     inkscape:window-y="24"
     inkscape:window-maximized="1"
     inkscape:current-layer="g3089" /><g
     id="g3089"
     inkscape:groupmode="layer"
     inkscape:label="Pastel2"
     transform="matrix(1.25,0,0,-1.25,-174.40625,394.96875)"><g
       id="g3095"><g
         id="g3097"
         clip-path="url(#clipPath3099)" /></g><g
       id="g3109"
       transform="matrix(0.49848896,0,0,0.03587674,110.09421,296.54021)"><g
         id="g3111"
         clip-path="url(#clipPath3113)"><path
           d="m 59.04,73.44 40.12,0 0,468.27 -40.12,0 0,-468.27 z"
           style="fill:#b3e2cd;fill-opacity:1;fill-rule:nonzero;stroke:none"
           id="path3117"
           inkscape:connector-curvature="0" /><path
           d="m 99.16,73.44 40.12,0 0,468.27 -40.12,0 0,-468.27 z"
           style="fill:#fdcdac;fill-opacity:1;fill-rule:nonzero;stroke:none"
           id="path3119"
           inkscape:connector-curvature="0" /><path
           d="m 139.28,73.44 40.12,0 0,468.27 -40.12,0 0,-468.27 z"
           style="fill:#cbd5e8;fill-opacity:1;fill-rule:nonzero;stroke:none"
           id="path3121"
           inkscape:connector-curvature="0" /><path
           d="m 179.4,73.44 40.12,0 0,468.27 -40.12,0 0,-468.27 z"
           style="fill:#f4cae4;fill-opacity:1;fill-rule:nonzero;stroke:none"
           id="path3123"
           inkscape:connector-curvature="0" /><path
           d="m 219.53,73.44 40.12,0 0,468.27 -40.12,0 0,-468.27 z"
           style="fill:#e6f5c9;fill-opacity:1;fill-rule:nonzero;stroke:none"
           id="path3125"
           inkscape:connector-curvature="0" /><path
           d="m 259.65,73.44 40.12,0 0,468.27 -40.12,0 0,-468.27 z"
           style="fill:#fff2ae;fill-opacity:1;fill-rule:nonzero;stroke:none"
           id="path3127"
           inkscape:connector-curvature="0" /><path
           d="m 299.77,73.44 40.12,0 0,468.27 -40.12,0 0,-468.27 z"
           style="fill:#f1e2cc;fill-opacity:1;fill-rule:nonzero;stroke:none"
           id="path3129"
           inkscape:connector-curvature="0" /><path
           d="m 339.89,73.44 40.12,0 0,468.27 -40.12,0 0,-468.27 z"
           style="fill:#cccccc;fill-opacity:1;fill-rule:nonzero;stroke:none"
           id="path3131"
           inkscape:connector-curvature="0" /></g></g></g></svg>