<?xml version="1.0" encoding="UTF-8" standalone="no"?>
<!-- Created with Inkscape (http://www.inkscape.org/) -->

<svg
   xmlns:dc="http://purl.org/dc/elements/1.1/"
   xmlns:cc="http://creativecommons.org/ns#"
   xmlns:rdf="http://www.w3.org/1999/02/22-rdf-syntax-ns#"
   xmlns:svg="http://www.w3.org/2000/svg"
   xmlns="http://www.w3.org/2000/svg"
   xmlns:sodipodi="http://sodipodi.sourceforge.net/DTD/sodipodi-0.dtd"
   xmlns:inkscape="http://www.inkscape.org/namespaces/inkscape"
   id="svg3237"
   version="1.1"
   inkscape:version="0.48.4 r9939"
   width="200"
   height="21.099998"
   xml:space="preserve"
   sodipodi:docname="Rainbow.svg"><metadata
     id="metadata3243"><rdf:RDF><cc:Work
         rdf:about=""><dc:format>image/svg+xml</dc:format><dc:type
           rdf:resource="http://purl.org/dc/dcmitype/StillImage" /><dc:title /></cc:Work></rdf:RDF></metadata><defs
     id="defs3241"><clipPath
       clipPathUnits="userSpaceOnUse"
       id="clipPath3261"><path
         d="m 59.04,73.44 752.4,0 0,462.96 -752.4,0 0,-462.96 z"
         id="path3263"
         inkscape:connector-curvature="0" /></clipPath></defs><sodipodi:namedview
     pagecolor="#ffffff"
     bordercolor="#666666"
     borderopacity="1"
     objecttolerance="10"
     gridtolerance="10"
     guidetolerance="10"
     inkscape:pageopacity="0"
     inkscape:pageshadow="2"
     inkscape:window-width="927"
     inkscape:window-height="1028"
     id="namedview3239"
     showgrid="false"
     showborder="false"
     inkscape:showpageshadow="false"
     fit-margin-top="0"
     fit-margin-left="0"
     fit-margin-right="0"
     fit-margin-bottom="0"
     inkscape:zoom="1.7949817"
     inkscape:cx="99.042876"
     inkscape:cy="-24.081356"
     inkscape:window-x="65"
     inkscape:window-y="24"
     inkscape:window-maximized="0"
     inkscape:current-layer="g3259" /><g
     id="g3245"
     inkscape:groupmode="layer"
     inkscape:label="Set3"
     transform="matrix(1.25,0,0,-1.25,-444.05,391.7)"><g
       id="g3257"
       transform="matrix(0.21265284,0,0,0.03646103,342.68498,293.8023)"><g
         id="g3259"
         clip-path="url(#clipPath3261)"><path
           d="m 59.04,73.44 94.05,0 0,462.96 -94.05,0 0,-462.96 z"
           style="fill:#ff0000;fill-opacity:1;fill-rule:nonzero;stroke:none"
           id="path3265"
           inkscape:connector-curvature="0" /><path
           d="m 153.09,73.44 94.05,0 0,462.96 -94.05,0 0,-462.96 z"
           style="fill:#ffbf00;fill-opacity:1;fill-rule:nonzero;stroke:none"
           id="path3267"
           inkscape:connector-curvature="0" /><path
           d="m 247.14,73.44 94.05,0 0,462.96 -94.05,0 0,-462.96 z"
           style="fill:#80ff00;fill-opacity:1;fill-rule:nonzero;stroke:none"
           id="path3269"
           inkscape:connector-curvature="0" /><path
           d="m 341.19,73.44 94.05,0 0,462.96 -94.05,0 0,-462.96 z"
           style="fill:#00ff40;fill-opacity:1;fill-rule:nonzero;stroke:none"
           id="path3271"
           inkscape:connector-curvature="0" /><path
           d="m 435.24,73.44 94.05,0 0,462.96 -94.05,0 0,-462.96 z"
           style="fill:#00ffff;fill-opacity:1;fill-rule:nonzero;stroke:none"
           id="path3273"
           inkscape:connector-curvature="0" /><path
           d="m 529.29,73.44 94.05,0 0,462.96 -94.05,0 0,-462.96 z"
           style="fill:#0040ff;fill-opacity:1;fill-rule:nonzero;stroke:none"
           id="path3275"
           inkscape:connector-curvature="0" /><path
           d="m 623.34,73.44 94.05,0 0,462.96 -94.05,0 0,-462.96 z"
           style="fill:#8000ff;fill-opacity:1;fill-rule:nonzero;stroke:none"
           id="path3277"
           inkscape:connector-curvature="0" /><path
           d="m 717.39,73.44 94.05,0 0,462.96 -94.05,0 0,-462.96 z"
           style="fill:#ff00bf;fill-opacity:1;fill-rule:nonzero;stroke:none"
           id="path3279"
           inkscape:connector-curvature="0" /></g></g></g></svg>