<?xml version="1.0" encoding="UTF-8" standalone="no"?>
<!-- Created with Inkscape (http://www.inkscape.org/) -->

<svg
   xmlns:dc="http://purl.org/dc/elements/1.1/"
   xmlns:cc="http://creativecommons.org/ns#"
   xmlns:rdf="http://www.w3.org/1999/02/22-rdf-syntax-ns#"
   xmlns:svg="http://www.w3.org/2000/svg"
   xmlns="http://www.w3.org/2000/svg"
   xmlns:sodipodi="http://sodipodi.sourceforge.net/DTD/sodipodi-0.dtd"
   xmlns:inkscape="http://www.inkscape.org/namespaces/inkscape"
   id="svg3133"
   version="1.1"
   inkscape:version="0.48.4 r9939"
   width="200"
   height="21.000002"
   xml:space="preserve"
   sodipodi:docname="Set1.pdf"><metadata
     id="metadata3139"><rdf:RDF><cc:Work
         rdf:about=""><dc:format>image/svg+xml</dc:format><dc:type
           rdf:resource="http://purl.org/dc/dcmitype/StillImage" /><dc:title></dc:title></cc:Work></rdf:RDF></metadata><defs
     id="defs3137"><clipPath
       clipPathUnits="userSpaceOnUse"
       id="clipPath3151"><path
         d="m 59.04,73.44 320.97,0 0,468.27 -320.97,0 0,-468.27 z"
         id="path3153"
         inkscape:connector-curvature="0" /></clipPath><clipPath
       clipPathUnits="userSpaceOnUse"
       id="clipPath3165"><path
         d="m 59.04,73.44 320.97,0 0,468.27 -320.97,0 0,-468.27 z"
         id="path3167"
         inkscape:connector-curvature="0" /></clipPath></defs><sodipodi:namedview
     pagecolor="#ffffff"
     bordercolor="#666666"
     borderopacity="1"
     objecttolerance="10"
     gridtolerance="10"
     guidetolerance="10"
     inkscape:pageopacity="0"
     inkscape:pageshadow="2"
     inkscape:window-width="1855"
     inkscape:window-height="1056"
     id="namedview3135"
     showgrid="false"
     showborder="false"
     inkscape:showpageshadow="false"
     fit-margin-top="0"
     fit-margin-left="0"
     fit-margin-right="0"
     fit-margin-bottom="0"
     inkscape:zoom="0.44500587"
     inkscape:cx="-411.7994"
     inkscape:cy="-481.23244"
     inkscape:window-x="65"
     inkscape:window-y="24"
     inkscape:window-maximized="1"
     inkscape:current-layer="g3141" /><g
     id="g3141"
     inkscape:groupmode="layer"
     inkscape:label="Set1"
     transform="matrix(1.25,0,0,-1.25,-174.40625,394.96875)"><g
       id="g3147"><g
         id="g3149"
         clip-path="url(#clipPath3151)" /></g><g
       id="g3161"
       transform="matrix(0.49848896,0,0,0.03587674,110.09421,296.54021)"><g
         id="g3163"
         clip-path="url(#clipPath3165)"><path
           d="m 59.04,73.44 40.12,0 0,468.27 -40.12,0 0,-468.27 z"
           style="fill:#e41a1c;fill-opacity:1;fill-rule:nonzero;stroke:none"
           id="path3169"
           inkscape:connector-curvature="0" /><path
           d="m 99.16,73.44 40.12,0 0,468.27 -40.12,0 0,-468.27 z"
           style="fill:#377eb8;fill-opacity:1;fill-rule:nonzero;stroke:none"
           id="path3171"
           inkscape:connector-curvature="0" /><path
           d="m 139.28,73.44 40.12,0 0,468.27 -40.12,0 0,-468.27 z"
           style="fill:#4daf4a;fill-opacity:1;fill-rule:nonzero;stroke:none"
           id="path3173"
           inkscape:connector-curvature="0" /><path
           d="m 179.4,73.44 40.12,0 0,468.27 -40.12,0 0,-468.27 z"
           style="fill:#984ea3;fill-opacity:1;fill-rule:nonzero;stroke:none"
           id="path3175"
           inkscape:connector-curvature="0" /><path
           d="m 219.53,73.44 40.12,0 0,468.27 -40.12,0 0,-468.27 z"
           style="fill:#ff7f00;fill-opacity:1;fill-rule:nonzero;stroke:none"
           id="path3177"
           inkscape:connector-curvature="0" /><path
           d="m 259.65,73.44 40.12,0 0,468.27 -40.12,0 0,-468.27 z"
           style="fill:#ffff33;fill-opacity:1;fill-rule:nonzero;stroke:none"
           id="path3179"
           inkscape:connector-curvature="0" /><path
           d="m 299.77,73.44 40.12,0 0,468.27 -40.12,0 0,-468.27 z"
           style="fill:#a65628;fill-opacity:1;fill-rule:nonzero;stroke:none"
           id="path3181"
           inkscape:connector-curvature="0" /><path
           d="m 339.89,73.44 40.12,0 0,468.27 -40.12,0 0,-468.27 z"
           style="fill:#f781bf;fill-opacity:1;fill-rule:nonzero;stroke:none"
           id="path3183"
           inkscape:connector-curvature="0" /></g></g></g></svg>